<?xml version="1.0" encoding="utf-8"?>
<!-- Generator: Adobe Illustrator 25.0.0, SVG Export Plug-In . SVG Version: 6.00 Build 0)  -->
<svg version="1.1" id="Layer_1" xmlns="http://www.w3.org/2000/svg" xmlns:xlink="http://www.w3.org/1999/xlink" x="0px" y="0px"
	 viewBox="0 0 1920 1080" style="enable-background:new 0 0 1920 1080;" xml:space="preserve">
<style type="text/css">
	.st0{fill:#1188CA;}
	.st1{fill:#2A3E81;}
	.st2{fill:#2B3E82;}
	.st3{fill:#2F4184;}
	.st4{fill:#3B4B8A;}
	.st5{fill:#218FCE;}
	.st6{fill:#098BD4;}
	.st7{fill:#45ABF9;}
	.st8{fill:#0B4AB9;}
</style>
<g>
	<g>
		<path class="st0" d="M783.15,696.48c0.15-4.93,1.75-9.6,2.58-14.41c3.3-19.24,9.74-37.51,17.2-55.47
			c4.59-11.05,9.21-22.09,13.63-33.21c2.91-7.31,3.51-15.15,4.74-22.85c1.54-9.66-0.49-18.76-3.65-27.74
			c-0.34-0.96-0.49-2.13-1.65-2.6c-0.35,0.09-0.76,0.09-1.02,0.28c-3.94,2.91-7.85,5.86-11.78,8.78
			c-10,7.44-13.84,17.37-11.93,29.59c1.09,6.99,2.6,13.86,4.82,20.62c3.45,10.5,3.12,21.09-0.74,31.51
			c-2.09,5.64-4.63,11.04-8.15,15.95c-2.33,3.24-4.6,6.53-6.83,9.84c-4.07,6.03-9.73,10.24-15.97,13.7
			c-10.2,5.65-21.06,9.77-32.18,13.18c-5.96,1.83-12.02,2.64-18.25,1.94c-1.26-0.14-2.54-0.21-3.81-0.18
			c-9.46,0.19-17.74-3.21-25.53-8.22c-9.22-5.93-13.95-14.53-14.93-25.28c-0.65-7.15,0.42-14.18,2.54-20.97
			c2.65-8.5,6.39-16.55,10.89-24.26c8.15-13.96,17.43-27.19,26.48-40.56c9.79-14.46,18.04-29.8,25.85-45.37
			c4.24-8.46,6.84-17.56,9.43-26.64c1.1-3.83,2.29-7.65,3.7-11.38c3.13-8.27,8.98-13.93,17.19-17.17
			c6.81-2.69,13.95-3.92,21.16-4.86c5.94-0.77,11.91-1.3,17.82-2.25c8.47-1.35,16.67-3.67,23.93-8.49c1.77-1.18,3.88-2.07,4.72-4.31
			c2.02-0.56,3.79-1.52,5.18-3.12c1.14-1.9,2.81-3.31,4.4-4.79c8.31-7.74,17.88-13.66,28.01-18.6c15.1-7.37,31.11-12,47.73-14.4
			c17.6-2.54,34.71-0.83,51.27,5.99c7.36,3.03,14.6,6.5,22.56,7.83c3.27,0.56,6.53,1.12,9.8,1.68c5.88,0.8,11.58-0.55,17.3-1.48
			c9.52-1.54,18.7-4.42,27.81-7.47c5.72-1.92,11.6-2.94,17.51-3.85c3.79-0.58,7.59-0.35,11.37,0.41c6.24,1.25,12.41,2.73,18.29,5.23
			c8.49,3.61,15.56,8.86,21.41,16.18c7.95,9.96,14.84,20.59,21.71,31.27c6.58,10.23,13.51,20.24,21.78,29.19
			c9.48,10.25,19.09,20.41,30.41,28.73c2.19,1.61,4.48,3.08,6.74,4.61c4.51,3.04,8.95,6.21,13.57,9.08
			c8.22,5.11,10.31,13.23,7.1,22.9c-2.76,8.3-8.36,14.75-15.5,19.81c-8.31,5.89-17.61,9.33-27.6,10.91
			c-5.01,0.79-10.02,1.49-15.14,1.62c-12.3,0.31-23.14-3.77-33.27-10.27c-11.2-7.19-20.02-16.68-26.82-28.08
			c-7.53-12.62-14.94-25.3-20.81-38.81c-2.39-5.51-5.71-10.51-9.01-15.51c-1.72-2.61-4.07-4.6-6.61-6.41
			c-3.07-2.19-6.18-1.73-9.29-0.31c-1.72,0.78-2.2,2.46-1.85,4.15c0.5,2.48,1.16,4.94,1.98,7.33c1.7,4.99,3.9,9.75,6.56,14.32
			c5.47,9.4,10.47,19.12,16.99,27.86c7.49,10.03,14.86,20.21,23.11,29.6c9.45,10.76,18.73,21.72,28.94,31.8
			c0.38,0.37,0.65,0.85,0.97,1.29c-1.11,0.97-1.32,2.24-1.23,3.61c-1.23-0.76-2.5-1.47-3.69-2.28c-6.24-4.22-13.07-7.05-20.44-8.55
			c-3.9-0.79-7.83-1.49-11.77-2.05c-11.13-1.59-22.25-3.24-33.55-3.23c-11.98,0.01-23.95-0.22-35.93-0.22
			c-3.66,0-7.23-0.29-10.77-1.25c-2.45-0.67-4.94-1.18-7.41-1.77c-7.28-1.75-14.12-4.39-20.31-8.82c-3.54-2.53-6.97-5.2-10.5-7.74
			c-5.69-4.11-10.31-9.27-13.71-15.3c-6.44-11.42-11.48-23.48-14.13-36.39c-1.94-9.45-2.34-19.07-2.26-28.7
			c0.09-9.8,0.24-19.6,0.27-29.4c0.02-5.99-0.31-11.98-0.15-17.96c0.12-4.58-0.3-9.1-1.34-13.5c-1.71-7.18-5.97-12.51-13.2-14.65
			c-11.59-3.43-22.62-1.42-33.04,4.38c-2.44,1.36-4.1,3.51-5.22,6.09c-1.79,4.13-2.25,8.38-1.41,12.79
			c0.94,4.99,1.97,9.96,2.81,14.97c3.74,22.41,9.25,44.38,16.64,65.86c2.72,7.91,5.01,15.92,6.8,24.06
			c1.8,8.16,3.09,16.41,2.71,24.81c-0.15,3.25-0.75,6.49-0.95,9.74c-0.22,3.48-0.95,6.83-2,10.12
			c-4.81,15.02-13.77,27.01-26.48,36.31c-13.38,9.78-27.81,17.79-42.52,25.32c-9.37,4.8-18.87,9.31-27.75,15.01
			c-8.1,5.2-16.13,10.47-22.92,17.41c-2.29,2.34-4.45,4.72-5.68,7.8c-1.42-0.13-2.37,0.69-3.31,1.58
			C786.08,693.78,784.61,695.12,783.15,696.48z M989.01,537.12c0,1.81-0.06,3.62,0.01,5.42c0.21,5.98,3.04,10.35,8.48,12.75
			c5.95,2.62,11.87,5.27,17.41,8.71c4.75,2.94,9.93,4.17,15.53,3.66c5.95-0.53,10.76-5.32,11.14-11.28
			c0.09-1.44,0.17-2.88,0.26-4.32c1.48-1.36,1.92-3.07,1.43-4.95c-0.45-1.75-0.91-3.53-1.66-5.15c-5.6-12.04-14.65-20.49-26.9-25.5
			c-6.08-2.49-12.41-3.97-19.05-3.59c-1.8,0.1-3.58,0.2-5.25,1.11c-4.02,2.2-6.1,5.99-5.47,10.9
			C985.49,529.2,986.42,533.46,989.01,537.12z M841.54,591.23c1.78,0.52,2.21,2.27,3.2,3.51c3.72,4.65,9.27,6.3,15,4.56
			c2.1-0.64,4.14-1.5,5.83-2.81c2.85-2.2,5.99-4.07,8.37-6.84c2.61-3.05,5.9-5.3,9.05-7.7c2-1.53,4.09-2.96,6.23-4.29
			c4.55-2.83,6.15-7.36,7.09-12.23c0.34-1.78-0.1-3.54-0.81-5.27c-0.91-2.22-2.59-3.9-3.73-5.93c0.09-0.9,0.12-1.81,0.27-2.7
			c0.73-4.41-1.17-8.15-6.2-10.24c-3.92-1.63-8.05-2.35-12.24-1.53c-3.72,0.73-7.41,1.68-10.86,3.38
			c-12.15,5.99-21.12,15.07-26.92,27.32c-1.95,4.13-2.13,8.3-1.04,12.7C835.72,587.04,838.45,589.23,841.54,591.23z"/>
		<path class="st1" d="M1619.62,576.03c0.9-0.77,1.83-0.71,2.73-0.71c11.45-0.05,22.9-0.03,34.35-0.2c2.41-0.04,3.55,0.86,4.49,2.96
			c7.56,16.9,15.22,33.76,22.86,50.63c3.97,8.77,7.93,17.53,11.92,26.29c0.42,0.91,0.59,2.05,1.79,2.44
			c0.97-0.86,0.56-1.98,0.56-2.97c-0.08-15.44-0.1-30.89-0.33-46.33c-0.15-9.81-0.99-19.6-2.35-29.32
			c-0.49-3.46-0.49-3.87,3.57-3.89c9.09-0.05,18.17-0.19,27.26-0.28c2.91-0.03,5.82-0.08,8.72-0.05c1.81,0.02,2.42,0.61,2.11,2.29
			c-0.85,4.66-1.05,9.38-1.4,14.09c-0.27,3.62-0.56,7.25-0.56,10.88c-0.08,36.88-0.12,73.77,0.83,110.64
			c0.21,8,0.88,15.95,2.16,23.86c0.35,2.17-0.02,2.65-2.16,2.68c-11.08,0.15-22.17,0.22-33.25,0.4c-1.92,0.03-2.99-0.69-3.76-2.41
			c-3.93-8.78-7.94-17.53-11.92-26.29c-8.33-18.35-16.66-36.69-25-55.04c-0.5-1.1-0.71-2.4-1.85-3.14
			c-1.02,0.25-0.75,1.12-0.75,1.72c0.16,19.44,0.15,38.88,0.62,58.32c0.2,8.15,1.43,16.27,2.18,24.41c0.21,2.3-0.06,2.68-2.17,2.7
			c-12.36,0.08-24.71,0.14-37.07,0.17c-2.48,0.01-2.7-0.33-2.43-2.95c0.46-4.33,1.01-8.66,1.39-12.99
			c0.32-3.62,0.64-7.25,0.64-10.87c0.08-36.34,0.24-72.68-0.74-109.01c-0.23-8.36-0.82-16.69-2.25-24.94
			C1619.6,578.07,1619.67,576.98,1619.62,576.03z"/>
		<path class="st1" d="M1314.65,577.93c0.94-0.7,2.06-0.51,3.13-0.52c11.63-0.07,23.26-0.12,34.88-0.17c0.73,0,1.45-0.02,2.18,0.03
			c1.49,0.09,1.98,0.58,1.81,2.01c-0.37,3.24-0.77,6.49-1.24,9.72c-1,6.86-1.12,13.76-1.1,20.66c0.09,32.7,0.18,65.39,0.5,98.09
			c0.1,10.16,0.79,20.32,2.7,30.35c0.14,0.71,0.23,1.44,0.25,2.16c0.04,1.1-0.58,1.63-1.65,1.67c-0.54,0.02-1.09,0.05-1.63,0.05
			c-11.99,0.05-23.98,0.1-35.97,0.15c-0.54,0-1.09-0.04-1.63-0.07c-1.14-0.06-1.56-0.72-1.42-1.79c0.38-3.06,0.71-6.13,1.16-9.18
			c0.98-6.68,0.99-13.4,1.05-20.12c0.09-10.17,0.01-20.34-0.04-30.52c-0.01-2.46-0.34-2.75-2.88-2.75c-8.72,0-17.44,0.04-26.16,0.1
			c-2.57,0.02-2.88,0.32-2.89,2.75c-0.03,5.45,0.03,10.9,0.06,16.35c0.05,9.26,0.12,18.52,1,27.76c0.5,5.25,1.17,10.46,2.1,15.64
			c0.19,1.04-0.16,1.76-1.31,1.87c-0.72,0.07-1.45,0.1-2.17,0.11c-11.63,0.12-23.25,0.24-34.88,0.36c-0.73,0.01-1.45,0.01-2.18-0.04
			c-1.37-0.1-1.87-0.68-1.71-2.15c0.42-3.97,0.85-7.94,1.35-11.9c0.72-5.6,0.85-11.23,0.83-16.86c-0.1-31.24-0.13-62.49-0.42-93.73
			c-0.1-10.34-0.4-20.71-1.81-30.99c-0.34-2.52-0.75-5.02-1.05-7.55c-0.09-0.79,0.42-1.39,1.21-1.53c0.71-0.13,1.45-0.12,2.17-0.12
			c11.81-0.09,23.62-0.17,35.43-0.24c0.36,0,0.73-0.01,1.09,0.01c2.27,0.1,2.62,0.47,2.33,2.55c-0.35,2.52-0.67,5.04-1.06,7.54
			c-1.17,7.38-1.24,14.85-1.34,22.28c-0.16,11.08,0.04,22.16,0.09,33.24c0,0.54,0.01,1.09,0.05,1.63c0.1,1.23,0.66,2.05,1.99,2.07
			c1.82,0.02,3.63,0.03,5.45,0.01c6.54-0.07,13.08-0.15,19.62-0.24c1.09-0.01,2.18-0.02,3.26-0.13c1.04-0.1,1.58-0.76,1.62-1.8
			c0.03-0.73,0.05-1.45,0.05-2.18c-0.12-15.8,0.25-31.61-1.11-47.38c-0.42-4.88-1.16-9.73-1.77-14.59
			C1314.46,579.68,1314.16,578.81,1314.65,577.93z"/>
		<path class="st2" d="M537.71,579.68c1.58,0,2.82,0,4.07,0c14.89-0.02,29.79,0.07,44.68-0.08c11.85-0.12,21.51,4.43,29.34,13.12
			c6.86,7.61,10.92,16.66,13.03,26.58c2.69,12.61,1.46,24.94-3.35,36.87c-3.31,8.22-8.26,15.3-15.34,20.8
			c-2.66,2.06-2.67,2.16-1.57,4.87c6.62,16.3,13.23,32.61,19.93,48.88c2.5,6.06,5.84,11.68,9.52,17.09c1.36,1.99,1.04,2.69-1.1,2.7
			c-12.71,0.05-25.43,0.07-38.14,0.07c-2.1,0-2.69-0.37-2.99-2.36c-1.66-10.89-6.16-20.84-10.21-30.93
			c-3.31-8.24-6.65-16.46-9.94-24.6c-1.32-0.14-1.23,0.7-1.23,1.35c-0.01,15.43-0.25,30.88,1.46,46.25
			c0.26,2.34,0.71,4.67,0.96,7.01c0.31,2.96,0.06,3.22-2.68,3.32c-0.36,0.01-0.73,0.01-1.09,0.01c-10.72,0.02-21.43,0.03-32.15,0.04
			c-0.89,0-1.77-0.08-2.37-0.12c-1.31-1.1-0.91-2.23-0.76-3.25c1.37-9.36,2.04-18.77,2.03-28.22c-0.03-36.14-0.07-72.28-0.17-108.42
			c-0.02-8.36-0.75-16.68-1.83-24.97C537.59,583.94,537.17,582.14,537.71,579.68z M595.73,631.73c-0.01-0.22-0.04-1.3-0.12-2.39
			c-0.46-5.79-2.58-10.88-6.55-15.15c-3.44-3.69-7.76-5.15-12.74-4.88c-1.33,0.07-1.95,0.76-2.07,2c-0.07,0.72-0.05,1.45-0.05,2.17
			c0.03,12.68,0.06,25.35,0.11,38.03c0,0.72,0.02,1.45,0.12,2.17c0.11,0.81,0.64,1.21,1.45,1.3c6.51,0.7,11.73-1.44,15.45-6.95
			C594.47,643.36,595.71,638.15,595.73,631.73z"/>
		<path class="st1" d="M1757.34,738.24c2.76-17.53,2.42-35.31,2.29-53.09c-0.17-24.15-0.29-48.31-0.45-72.46
			c-0.08-12-0.77-23.95-2.8-35.79c-0.31-1.83,0.11-2.37,1.82-2.5c0.54-0.04,1.09-0.03,1.63-0.03c15.8-0.07,31.61-0.36,47.41-0.14
			c19.03,0.26,33.33,8.82,42.53,25.61c4.32,7.88,7.03,16.34,8.63,25.12c3.92,21.47,4.03,42.98-0.01,64.44
			c-1.93,10.24-5.28,19.99-11.17,28.72c-6.56,9.74-15.48,16.21-26.9,19.09c-3.87,0.98-7.81,1.63-11.84,1.65
			c-15.8,0.08-31.6,0.19-47.41,0.28C1759.84,739.14,1758.51,739.42,1757.34,738.24z M1824.36,658.98
			c-0.24-13.11-0.97-24.84-3.03-34.27c-1.16-5.33-2.65-10.55-5.58-15.24c-2.8-4.49-6.69-7.05-12.17-6.76
			c-1.27,0.07-2.54,0-3.81,0.04c-3.61,0.09-3.63,0.12-3.7,3.66c-0.01,0.73,0.01,1.45,0.01,2.18c0.15,31.56,0.29,63.12,0.47,94.68
			c0.05,8.21-0.97,6.97,7.36,7.09c2.98,0.04,5.79-0.37,8.25-2.17c2.09-1.53,3.62-3.53,4.86-5.78c2.12-3.85,3.38-8,4.33-12.26
			C1823.75,679.47,1824.09,668.59,1824.36,658.98z"/>
		<path class="st1" d="M259.93,692.55c0,6.17-0.09,11.93,0.02,17.69c0.21,10.53,0.28,21.07,1.64,31.54
			c0.33,2.52,0.71,5.03,1.02,7.55c0.13,1.11-0.52,1.64-1.57,1.71c-0.91,0.06-1.81,0.07-2.72,0.08c-10.35,0.05-20.71,0.1-31.06,0.13
			c-1.24,0-2.55,0.28-3.68-0.56c-0.58-1.24-0.22-2.52-0.05-3.75c1.76-12.99,2.08-26.05,2.06-39.14c-0.05-27.79-0.12-55.58-0.1-83.37
			c0.01-9.82-0.46-19.61-1.12-29.39c-0.31-4.66-1-9.3-1.51-13.82c1.32-1.04,2.63-0.75,3.87-0.75c15.44-0.05,30.88,0,46.33-0.11
			c11.05-0.08,20.09,4.27,27.54,12.17c7.71,8.17,12.08,18.07,14.09,28.99c2.33,12.65,0.85,24.97-4.28,36.78
			c-3.46,7.97-8.55,14.73-15.56,19.97c-1.8,1.35-1.8,1.46-0.93,3.62c4.62,11.44,9.27,22.87,13.91,34.3
			c1.57,3.87,3.15,7.73,4.71,11.6c2.8,6.92,6.14,13.55,10.43,19.69c0.6,0.86,1.38,1.66,1.36,2.83c-0.36,0.91-1.2,0.66-1.84,0.66
			c-12.35,0.05-24.71,0.07-37.06,0.1c-0.73,0-1.46,0.01-2.17-0.07c-0.99-0.12-1.68-0.69-1.83-1.7c-1.95-13.1-7.85-24.86-12.54-37.03
			c-2.29-5.92-4.78-11.77-7.17-17.65C261.46,693.94,261.31,693.22,259.93,692.55z M281.24,633.43c0-1.27,0.12-2.55-0.02-3.79
			c-0.72-6.12-2.98-11.52-7.57-15.79c-3.57-3.32-7.85-4.27-12.56-3.69c-0.79,0.1-1.3,0.61-1.37,1.41c-0.08,1.08-0.1,2.17-0.1,3.25
			c0.01,12.12,0.04,24.24,0.06,36.37c0,0.9,0.01,1.81,0.06,2.71c0.07,1.31,0.85,1.83,2.11,1.91c6.77,0.46,11.99-2.15,15.55-7.92
			C280.12,643.48,281.37,638.62,281.24,633.43z"/>
		<path class="st1" d="M1369.67,658.01c-0.15-13.42,1.1-26.59,4.47-39.51c1.75-6.7,4.18-13.14,7.57-19.2
			c10.64-19.07,28.28-26.61,48.92-24.71c17.55,1.62,30.07,10.82,38.35,26.12c4.36,8.06,7.09,16.7,8.81,25.66
			c3.06,15.97,3.83,32.06,2.51,48.29c-0.86,10.55-2.47,20.91-5.78,30.98c-2.4,7.29-5.68,14.15-10.43,20.24
			c-8.02,10.28-18.53,15.98-31.48,17.49c-7.33,0.85-14.54,0.47-21.62-1.41c-10.8-2.86-19.25-9.18-25.65-18.27
			c-5.41-7.68-8.82-16.25-11.15-25.28C1370.75,685.13,1369.48,671.6,1369.67,658.01z M1408.41,657.28c0.31,9.6,0.49,19.4,1.89,29.13
			c0.85,5.93,1.95,11.81,4.07,17.45c0.96,2.56,2.11,5.03,3.81,7.19c4.3,5.45,10.44,5.45,14.73,0.01c2.17-2.75,3.4-5.98,4.44-9.28
			c1.64-5.21,2.59-10.59,3.14-16c1.98-19.22,1.84-38.43-0.97-57.57c-0.79-5.39-1.99-10.7-4.17-15.74c-1.16-2.69-2.53-5.24-4.78-7.2
			c-3.46-3-7.94-2.98-11.39,0.03c-1.96,1.71-3.25,3.91-4.3,6.23c-1.74,3.82-2.78,7.85-3.63,11.95
			C1408.96,634.57,1408.81,645.83,1408.41,657.28z"/>
		<path class="st1" d="M1492.66,577c0.95-0.86,1.89-0.74,2.78-0.75c12-0.07,23.99-0.13,35.99-0.19c0.72,0,1.45,0.01,2.17,0.09
			c0.79,0.09,1.36,0.46,1.28,1.37c-0.06,0.72-0.16,1.44-0.26,2.16c-1.86,13.72-2.22,27.52-2.1,41.34
			c0.23,25.44,0.43,50.88,0.68,76.33c0.02,1.99,0.05,4.04,0.52,5.95c1.73,7.06,8.02,11.88,14.65,11.46
			c6.52-0.41,12.21-6.04,13.27-13.17c0.16-1.07,0.17-2.17,0.16-3.26c-0.29-31.98,0.17-63.97-0.96-95.95
			c-0.25-7.09-0.89-14.14-2.1-21.13c-0.18-1.07-0.31-2.16-0.4-3.25c-0.12-1.49,0.34-2.07,1.69-2.2c0.72-0.07,1.45-0.08,2.18-0.08
			c11.63-0.1,23.27-0.19,34.9-0.28c0.73-0.01,1.46,0.01,2.18,0.09c0.83,0.09,1.34,0.66,1.27,1.45c-0.12,1.44-0.43,2.87-0.61,4.31
			c-1.68,13.56-1.96,27.17-1.84,40.81c0.21,23.08,0.44,46.16,0.57,69.24c0.06,11.19-2.91,21.57-9.25,30.84
			c-9.26,13.54-22.06,20.71-38.6,20.83c-4.36,0.03-8.73,0.31-13.07-0.28c-13.16-1.79-23.49-8.34-31.21-18.99
			c-6.7-9.22-10.16-19.62-10.26-31.05c-0.2-21.99-0.31-43.98-0.51-65.97c-0.06-6.72-0.29-13.45-0.41-20.17
			c-0.16-8.19-0.89-16.32-2.13-24.41C1492.98,580.39,1492.84,578.61,1492.66,577z"/>
		<path class="st1" d="M335.57,750.43c0.13-1.76,0.18-3.39,0.39-4.99c1.22-9.56,1.88-19.16,1.87-28.79
			c-0.01-33.06,0.01-66.11-0.16-99.17c-0.06-11.62-0.7-23.23-2.39-34.75c-0.31-2.12,0.04-2.55,2.29-2.57
			c6.9-0.07,13.81-0.07,20.71-0.09c7.08-0.02,14.17-0.07,21.25-0.04c4.36,0.02,8.69,0.38,12.96,1.4
			c9.37,2.23,16.93,7.23,22.91,14.73c5.05,6.34,8.38,13.56,10.86,21.21c2.87,8.85,4.44,17.96,5.37,27.19
			c1.41,14.14,1.43,28.29-0.01,42.43c-1.03,10.13-2.82,20.12-6.31,29.75c-2.11,5.83-4.78,11.38-8.44,16.4
			c-8.12,11.14-19.1,17.29-32.83,17.63c-15.61,0.39-31.24,0.13-46.86,0.14C336.86,750.9,336.52,750.71,335.57,750.43z
			 M371.92,665.48c0.06,0,0.12,0,0.18,0c0,16.51-0.01,33.03,0.01,49.54c0.01,7.12-0.56,6.05,6.53,6.34
			c5.61,0.23,9.27-2.33,11.9-6.98c1.9-3.35,3.11-6.95,4.02-10.65c1.34-5.47,2.12-11.02,2.63-16.64c1.46-16.14,1.27-32.26-0.64-48.34
			c-0.68-5.75-1.8-11.46-3.85-16.94c-1.02-2.73-2.23-5.36-4.03-7.67c-1.36-1.75-2.97-3.32-5.15-3.84
			c-3.38-0.82-6.85-0.53-10.28-0.24c-0.81,0.07-1.22,0.73-1.24,1.53c-0.05,1.45-0.07,2.9-0.07,4.35
			C371.92,632.45,371.92,648.97,371.92,665.48z"/>
		<path class="st1" d="M209.06,666.59c-0.21,15.09-1.31,30.09-5.26,44.75c-1.94,7.21-4.56,14.15-8.42,20.58
			c-5.39,9-12.57,15.98-22.67,19.42c-16.88,5.75-39.15,2.75-52.17-17.28c-4.91-7.55-8.14-15.79-10.36-24.44
			c-2.66-10.4-4.14-21.01-4.53-31.74c-0.45-12.34-0.48-24.68,1.04-36.98c1.34-10.84,3.47-21.48,7.64-31.64
			c2.36-5.74,5.31-11.14,9.29-15.93c7.72-9.28,17.57-14.4,29.67-15.04c4.36-0.23,8.73-0.22,13.03,0.64
			c10.21,2.04,18.48,7.25,24.9,15.44c5.34,6.81,8.83,14.55,11.42,22.74c2.8,8.86,4.45,17.97,5.31,27.19
			C208.63,651.7,209.35,659.12,209.06,666.59z M172.52,666.99c-0.14-5.81-0.15-11.62-0.44-17.42c-0.42-8.34-1.28-16.64-3.17-24.8
			c-0.74-3.19-1.66-6.31-3.04-9.29c-0.84-1.82-1.83-3.55-3.25-5c-3.42-3.5-7.59-3.55-11.02-0.13c-1.57,1.56-2.63,3.46-3.52,5.46
			c-1.49,3.33-2.46,6.81-3.22,10.37c-2.01,9.44-2.8,19.03-3.11,28.65c-0.4,12.16-0.27,24.33,1.07,36.45
			c0.8,7.21,1.81,14.4,4.14,21.33c0.99,2.94,2.16,5.79,4.19,8.19c3.78,4.48,8.77,4.39,12.47-0.22c1.96-2.44,3.12-5.32,4.06-8.26
			c1.73-5.37,2.64-10.92,3.35-16.51C172.24,686.23,172.41,676.61,172.52,666.99z"/>
		<path class="st3" d="M783.15,696.48c1.46-1.36,2.93-2.7,4.37-4.07c0.94-0.9,1.89-1.71,3.31-1.58c-0.99,3.11-1.97,6.22-2.97,9.33
			c-2.75,8.55-4,17.39-3.8,26.3c0.23,10.17,1.43,20.27,4.44,30.08c0.8,2.6,1.5,5.23,2.21,7.86c2.51,9.29,5.46,18.46,9.21,27.29
			c6.88,16.22,16.93,30.31,29.82,42.43c8.71,8.2,18.87,13.37,30.37,16.17c7.13,1.74,14.26,2.53,21.54,0.85
			c13.49-3.12,26.7-7.25,38.84-13.85c14.34-7.8,28.25-16.39,40.4-27.5c7.54-6.9,14.32-14.4,19.47-23.29
			c2.61-4.52,3.97-9.3,3.53-14.56c-0.2-2.35-0.27-4.71-0.28-7.07c-0.01-5.11-1.12-10.08-1.84-15.09c-0.32-2.23-0.46-2.28-2.82-2.34
			c-9.47-0.25-18.25-2.93-26.34-7.72c-4.21-2.49-8.13-5.47-12.17-8.24c-5.45-3.74-9.65-8.76-14.08-13.57
			c-5.98-6.48-10.43-13.9-13.85-21.99c-1.07-2.53-1.66-5.17-2.09-7.86c-0.35-2.21-0.09-4.28,0.94-6.34
			c2.66-5.3,5.95-9.97,11.45-12.68c1.46-0.72,2.87-1.54,4.35-2.23c10.39-4.86,21.11-8.43,32.53-10.33
			c9.18-1.53,18.35-2.17,27.59-2.62c6.55-0.31,13.07,0.44,19.51,1.3c7.9,1.05,13.7,5.63,15.53,13.87c0.52,2.33,0.82,4.62,0.82,6.99
			c0.01,6.24-1.15,12.3-3.18,18.13c-4.78,13.75-10.75,26.95-18.91,39.08c-3.26,4.85-6.76,9.51-12.24,12.08
			c-3.12,1.47-3.34,1.26-2.32,5.43c0.09,0.35,0.19,0.7,0.26,1.06c1.59,8.02,2.99,16.06,2.35,24.29c-0.04,0.54-0.08,1.09-0.09,1.63
			c-0.02,1.99,0.18,2.32,2.07,2.37c3.47,0.08,6.92,0.44,10.25,1.34c9.1,2.46,18.18,4.97,27.21,7.67c6.94,2.07,13.76,4.56,20.69,6.68
			c5.02,1.53,10.07,3.11,15.22,4.03c11.62,2.08,23.28,3.71,35.16,3.6c11.7-0.11,23.19-1.53,34.43-4.67
			c8.26-2.31,16.03-5.79,22.97-10.93c2.91-2.15,5.87-4.27,8.55-6.67c4.9-4.39,9.12-9.24,11.38-15.67
			c2.05-5.84,3.81-11.67,4.62-17.85c0.96-7.38,2.3-14.7,2.03-22.2c-0.19-5.26,0.05-10.54-0.33-15.79
			c-0.62-8.49-1.25-16.99-4.21-25.12c-1.98-5.45-3.52-11.06-5.52-16.5c-3.4-9.24-8.63-17.55-13.77-25.88
			c-0.38-0.61-0.87-1.17-1.38-1.69c-3.69-3.77-6.84-8-10.05-12.17c-2.45-3.18-5.23-6.03-8.16-8.75c-3.99-3.7-7.95-7.42-11.48-11.57
			c-0.08-1.37,0.13-2.64,1.23-3.61c0.32,0.17,0.71,0.27,0.94,0.51c8.18,8.47,17.63,15.74,24.33,25.62c0.81,1.2,1.8,2.28,2.76,3.37
			c9.85,11.21,16.54,24.17,21.27,38.23c0.87,2.58,1.76,5.15,2.69,7.7c3.76,10.35,5.23,21.12,5.54,32.05
			c0.28,9.8,0.55,19.59-0.77,29.38c-1.27,9.37-2.83,18.63-6.61,27.39c-1.52,3.53-3.39,6.81-5.98,9.67
			c-10.6,11.72-23.46,19.8-38.64,24.25c-14.63,4.29-29.6,5.78-44.71,4.79c-13.4-0.88-26.75-2.6-39.64-6.73
			c-7.42-2.37-14.8-4.88-22.28-7.04c-11.3-3.26-22.38-7.4-34.08-9.19c-1.62-0.25-3.19-0.43-4.86-0.19
			c-2.18,0.32-3.51,1.31-4.61,3.26c-5.41,9.57-12.7,17.65-20.75,25.04c-7.91,7.26-16.48,13.64-25.75,19.1
			c-4.07,2.39-7.93,5.13-12.04,7.46c-13.36,7.56-27.79,12.44-42.61,16.15c-12.11,3.04-23.75,0.65-35.17-3.65
			c-9.89-3.73-18.06-9.86-25.49-17.25c-11.47-11.41-20.42-24.53-27.01-39.21c-3.72-8.28-6.52-16.96-8.99-25.7
			c-2.17-7.67-4.65-15.27-5.97-23.17c-2.2-13.17-2.86-26.33,0.03-39.51C782.29,703.31,782.09,699.79,783.15,696.48z"/>
		<path class="st1" d="M447.27,750.41c-0.61-1.21-0.34-2.3-0.19-3.35c2.12-15.17,2.15-30.43,2.12-45.69
			c-0.06-24.53-0.12-49.06-0.08-73.59c0.01-10.91-0.33-21.8-1.09-32.68c-0.29-4.16-0.91-8.3-1.39-12.45
			c-0.28-2.48-0.07-2.71,2.56-2.8c0.54-0.02,1.09-0.01,1.64-0.01c21.08-0.04,42.17-0.07,63.25-0.12c5.04-0.01,4.89-0.11,4.89,4.65
			c0,7.63,0.02,15.26,0.03,22.9c0,0.91,0.03,1.82-0.03,2.72c-0.09,1.41-0.67,1.94-2.09,1.81c-3.98-0.35-7.96-0.73-11.94-1.14
			c-6.34-0.67-12.71-0.56-19.06-0.67c-2.14-0.04-2.59,0.43-2.6,2.52c-0.03,8-0.02,15.99,0.04,23.99c0.02,2.39,0.45,2.79,2.94,2.81
			c5.45,0.04,10.9,0,16.36-0.01c1.09,0,2.18-0.02,3.27,0.02c2.13,0.09,2.41,0.32,2.42,2.67c0.06,7.99,0.08,15.99,0.05,23.99
			c-0.01,2.76-0.24,2.94-3.26,2.96c-5.82,0.05-11.63,0-17.45,0.04c-4.23,0.03-4.29,0.06-4.28,4.19c0.03,14.54,0.11,29.07,0.18,43.61
			c0,0.73,0,1.46,0.06,2.18c0.11,1.21,0.68,2.04,2.02,2.07c0.91,0.02,1.82,0.02,2.72-0.02c9.98-0.48,19.99-0.46,29.91-1.9
			c1.08-0.16,2.16-0.29,3.25-0.37c1.39-0.1,1.95,0.4,1.96,1.9c0.04,9.27,0.06,18.53,0.03,27.8c-0.01,1.79-0.48,2.17-2.29,2.26
			c-0.91,0.05-1.82,0.02-2.73,0.03c-22.35,0.03-44.71,0.06-67.06,0.07C449.98,750.81,448.51,751.07,447.27,750.41z"/>
		<path class="st4" d="M838.54,442.53c-1.39,1.6-3.16,2.56-5.18,3.12c-0.74-7.95-1.7-15.86-3.47-23.67
			c-2.22-9.79-5.21-19.27-11.08-27.59c-0.41-0.58-0.91-1.1-1.32-1.59c-2.1,0.15-3.38,1.59-4.89,2.53
			c-12.4,7.71-25.77,12.4-40.41,13.27c-10.28,0.61-20.35-0.59-30.06-3.98c-14.74-5.14-25.42-15-32.72-28.76
			c-4.43-8.37-6.7-17.25-6.9-26.63c-0.07-3.59,0.33-7.29,1.13-10.8c5.13-22.43,16.37-41.32,33.3-56.89
			c8.63-7.94,18.5-13.97,28.88-19.29c5.03-2.58,10.17-4.87,15.65-6.12c2.62-0.6,4.02-1.96,5.27-4.12
			c3.47-5.97,7.49-11.57,11.85-16.94c5.44-6.7,11.87-12.17,19.22-16.71c17.99-11.1,37.63-16.86,58.58-18.56
			c10.7-0.87,21.39-1.05,32.09,0.05c4.92,0.51,9.67,1.57,14.29,3.25c14.35,5.21,27.28,12.79,38.14,23.57
			c2.26,2.24,4.02,2.31,6.61,1.13c6.63-3.02,13.63-4.96,20.69-6.67c8.15-1.98,16.41-3.05,24.8-3.04c6.42,0.01,12.64,1.2,18.69,3.27
			c4.34,1.48,8.34,3.7,11.74,6.74c9.17,8.19,15.81,18.05,18.14,30.28c1.43,7.51,1.6,15.12-0.21,22.7
			c-3.93,16.42-13.25,29.28-26.22,39.66c-9.29,7.43-19.77,12.8-30.91,16.9c-6.13,2.26-12.21,4.64-18.35,6.87
			c-2.11,0.77-3.05,1.98-3.34,4.33c-1.66,13.4,0.08,26.37,4.08,39.2c2.72,8.74,6.55,16.89,11.3,24.66c1.51,2.47,2.91,5.02,4.36,7.53
			c-3.27-0.56-6.53-1.12-9.8-1.68c0.54,0.02,1.09,0.09,1.63,0.04c1.51-0.15,1.93-0.86,1.26-2.08c-0.26-0.47-0.6-0.91-0.89-1.36
			c-6.29-9.89-10.62-20.59-13.58-31.91c-2.5-9.56-3.75-19.21-2.92-29.1c0.18-2.12,0.67-4.3-0.08-6.64c-1.99,0.55-3.89,1.11-5.8,1.61
			c-7.02,1.83-14.04,3.66-21.08,5.44c-1.9,0.48-3.04-0.21-3.23-1.74c-0.15-1.22,0.4-1.76,2.41-2.3c7.89-2.12,15.8-4.12,23.65-6.37
			c10.13-2.9,19.83-7.01,29.68-10.69c9.05-3.38,17.65-7.65,25.49-13.33c12.66-9.17,22.33-20.61,27.13-35.8
			c2.76-8.73,2.87-17.49,1.05-26.34c-1.97-9.57-7.25-17.35-13.84-24.27c-4.74-4.97-10.67-8.07-17.35-9.72
			c-7.12-1.75-14.31-2-21.6-1.28c-12.2,1.21-23.9,4.25-35.2,8.92c-2.05,0.85-2.25,1.44-1.11,3.19c2.88,4.4,5.81,8.77,8.69,13.17
			c1.06,1.62,0.83,2.87-0.6,3.61c-1.28,0.66-2.03-0.13-2.67-1.08c-1.82-2.71-3.79-5.34-5.41-8.17c-5.15-9.05-12.55-15.89-20.95-21.8
			c-4.75-3.35-9.72-6.35-14.94-8.91c-8.2-4.03-16.71-7.11-25.9-7.82c-3.62-0.28-7.25-0.36-10.88-0.43
			c-12.38-0.24-24.67,0.62-36.81,3.21c-14.33,3.05-27.76,8.31-40.12,16.24c-4.76,3.05-9.13,6.54-13,10.68
			c-7.5,8.01-13.38,17.14-18.72,26.66c-3.65,6.51-6.95,13.17-8.02,20.68c-0.05,0.35-0.19,0.7-0.33,1.03
			c-0.38,0.9-1.62,1.35-2.81,1.01c-1.1-0.31-1.31-1.18-1.14-2.13c0.8-4.66,1.96-9.22,4.01-13.52c0.78-1.64,1.51-3.29,2.22-4.96
			c0.31-0.72-0.35-1.34-1.18-1.15c-0.7,0.17-1.4,0.37-2.09,0.57c-3.86,1.13-7.38,3.04-10.91,4.87c-6.76,3.52-13.46,7.2-19.49,11.89
			c-7.33,5.7-13.88,12.19-19.68,19.5c-9.42,11.87-15.64,25.25-19.39,39.84c-0.63,2.45-1.17,4.99-1.22,7.5
			c-0.47,20.8,7.77,37.38,24.76,49.37c11.3,7.97,24.46,10.22,37.84,9.81c22.01-0.68,40.73-9.45,56.2-25.12
			c0.51-0.52,1.03-1.03,1.56-1.52c1.02-0.93,2.01-0.51,2.93,0.17c0.95,0.69,0.93,1.56-0.08,2.77c-2.33,2.79-4.96,5.29-7.78,7.58
			c-1.05,0.85-1.23,1.68-0.51,2.77c0.3,0.45,0.55,0.94,0.86,1.39c5.63,8.01,8.66,17.07,10.88,26.5c1.58,6.72,2.89,13.48,3.44,20.37
			C837,440.65,836.98,442.03,838.54,442.53z"/>
		<path class="st5" d="M390.29,790.09c-117.8,0.34-235.59,0.67-353.39,1c-1.82,0.01-3.63,0-5.44-0.13
			c-0.44-0.03-1.04-0.47-1.22-0.88c-1.05-2.41,0.12-4.38,2.61-4.45c1.45-0.05,2.91-0.02,4.36-0.02
			c137.06-0.39,274.13-0.76,411.19-1.16c98.34-0.29,196.69-0.61,295.03-0.92c1.82-0.01,3.64-0.04,5.45,0.02
			c2.05,0.07,2.42,0.52,2.51,2.67c0.1,2.16-0.31,2.69-2.27,2.79c-1.27,0.06-2.54,0.03-3.82,0.04
			c-118.34,0.38-236.68,0.75-355.02,1.13C390.29,790.15,390.29,790.12,390.29,790.09z"/>
		<path class="st5" d="M1574.62,536.56c-98.31,0.21-196.63,0.41-294.94,0.63c-6.91,0.02-13.81,0.1-20.71,0.15
			c-1.09,0.01-2.18-0.01-3.27-0.02c-1.42-0.01-1.84-0.9-1.86-2.13c-0.01-0.54-0.02-1.09,0.02-1.63c0.07-1.01,0.52-1.74,1.62-1.77
			c1.63-0.05,3.27-0.05,4.9-0.05c50.52-0.1,101.04-0.17,151.56-0.3c130.12-0.35,260.23-0.72,390.35-1.1
			c28.89-0.08,57.79-0.24,86.68-0.37c1.45-0.01,2.91-0.04,4.36,0c2.28,0.08,2.68,0.55,2.72,3.05c0.03,2.02-0.42,2.53-2.5,2.6
			c-1.63,0.05-3.27,0.02-4.91,0.03c-74.51,0.15-149.01,0.32-223.52,0.45c-30.17,0.05-60.33,0.01-90.5,0.01
			C1574.62,536.25,1574.62,536.41,1574.62,536.56z"/>
		<path class="st6" d="M121.25,557.77c-3.99,0-7.99,0.07-11.98-0.03c-2.21-0.05-3.08-1.91-1.96-3.81c0.67-1.13,1.6-1.99,2.69-2.64
			c2.14-1.28,2.78-3.21,2.65-5.56c-0.05-0.91-0.02-1.81-0.03-2.72c-0.11-15.06-0.22-30.13-0.34-45.19
			c-0.01-1.09-0.05-2.18-0.02-3.27c0.06-1.77-0.58-3.18-2.02-4.22c-0.44-0.32-0.92-0.6-1.33-0.94c-2.6-2.17-2.66-3.77,0.06-5.5
			c4.54-2.88,9.6-4.3,14.94-4.45c3.44-0.09,5.38,1.79,5.65,5.3c0.22,2.89,0.12,5.8,0.15,8.71c0.04,4.9,0.06,9.8,0.11,14.7
			c0.01,0.51-0.03,1.21,0.66,1.28c0.46,0.04,1.07-0.14,1.41-0.45c3.44-3.1,7.31-5.32,11.9-6.24c8.77-1.75,15.97,2.84,17.9,11.61
			c0.42,1.93,0.51,3.95,0.54,5.94c0.09,7.08,0.09,14.16,0.13,21.24c0.01,1.09-0.04,2.18,0.04,3.27c0.18,2.44,1.31,3.57,3.81,3.67
			c1.25,0.05,2.52-0.21,3.78-0.28c0.7-0.04,1.23,0.87,0.98,1.56c-1.95,5.34-8.8,9.51-14.37,8.64c-7.58-1.17-11.72-7.21-11.69-12.38
			c0.04-6.9-0.04-13.79-0.1-20.69c-0.01-1.45,0.05-2.93-0.2-4.34c-0.62-3.49-3.36-5.67-6.93-5.71c-3.62-0.04-6.46,1.98-7.28,5.32
			c-0.26,1.04-0.38,2.15-0.37,3.23c0.04,7.26,0.16,14.52,0.17,21.78c0,2.35,0.65,4.21,2.74,5.54c1.04,0.66,1.99,1.61,2.72,2.61
			c1.26,1.75,0.27,3.81-1.88,3.89c-3.26,0.13-6.53,0.08-9.8,0.1c-0.91,0.01-1.82,0-2.72,0
			C121.25,557.74,121.25,557.76,121.25,557.77z"/>
		<path class="st5" d="M466.12,539.59c-66.5,0.21-133.01,0.41-199.51,0.61c-1.82,0.01-3.63,0.01-5.45-0.07
			c-1.3-0.06-1.78-0.74-1.73-2.19c0.1-2.64,0.64-3.24,3.16-3.34c1.63-0.06,3.27-0.03,4.91-0.04c122.83-0.31,245.66-0.62,368.49-0.94
			c9.99-0.03,19.99-0.12,29.98-0.18c1.27-0.01,2.54,0.04,3.82,0c2.96-0.09,3.2,1.58,2.46,4.53c-0.1,0.39-0.74,0.88-1.18,0.92
			c-1.62,0.15-3.26,0.18-4.89,0.18c-40.34,0.08-80.68,0.17-121.01,0.23c-26.35,0.03-52.69,0.01-79.04,0.01
			C466.12,539.41,466.12,539.5,466.12,539.59z"/>
		<path class="st6" d="M204.87,533.83c-4.18,0-8.36-0.03-12.54,0.02c-1.36,0.01-1.87,0.79-1.61,2.15
			c1.93,9.78,12.48,14.63,21.13,9.67c1.73-0.99,3.31-2.24,5-3.29c0.78-0.49,1.66-0.69,2.51,0.02c0.82,0.68,0.82,1.59,0.67,2.49
			c-0.32,1.83-1.27,3.39-2.39,4.84c-1.92,2.49-4.33,4.4-7.13,5.8c-7.76,3.89-19.23,3.78-27.49-3.7
			c-12.27-11.11-12.55-31.53-0.48-42.87c5.47-5.14,11.97-7.41,19.46-6.72c9.33,0.86,16.79,7.73,19.03,17.67
			c0.8,3.55,1.28,7.17,0.22,10.79c-0.65,2.21-1.54,3.03-3.85,3.08c-4.18,0.08-8.36,0.02-12.54,0.02
			C204.87,533.8,204.87,533.81,204.87,533.83z M189.94,524.39c2.84,0.6,14.69,1,16.81,0.56c1.03-0.21,1.48-0.94,1.44-1.96
			c-0.12-3.18-1.14-6.04-3.2-8.46c-3.22-3.78-8.01-3.8-11.27-0.03C191.27,517.33,190.21,520.71,189.94,524.39z"/>
		<path class="st5" d="M1323.45,781.52c36.54,0,73.07,0,109.61,0c0.91,0,1.83-0.09,2.72,0.02c1.12,0.13,2.97-0.68,3.02,1.24
			c0.08,2.74-1.17,4.22-3.08,4.34c-1.09,0.07-2.18,0.04-3.27,0.04c-72.89,0.21-145.79,0.43-218.68,0.64c-1.45,0-2.91,0.05-4.36-0.05
			c-1.65-0.11-3.02-3.41-1.9-4.71c0.39-0.46,1.29-0.66,1.96-0.68c5.09-0.11,10.18-0.19,15.27-0.19c32.9-0.01,65.8-0.01,98.7-0.01
			C1323.45,781.94,1323.45,781.73,1323.45,781.52z"/>
		<path class="st6" d="M100.53,508.02c0,0.54,0.03,1.09-0.01,1.63c-0.16,2.18-0.84,2.96-2.99,3.05c-2.72,0.12-5.45,0.05-8.18,0.14
			c-1.91,0.06-2.4,0.46-2.4,2.15c0.03,8.54,0.11,17.08,0.18,25.62c0.01,1.86,0.51,3.61,1.34,5.24c1.44,2.84,3.92,3.58,6.85,2.26
			c2.06-0.93,3.41-2.67,4.98-4.16c1.01-0.96,2.52-0.57,3.17,0.69c0.61,1.17,0.81,2.35,0.44,3.67c-0.83,2.92-2.54,5.21-4.94,6.99
			c-8.5,6.29-23.04,5-27.79-8.21c-1.12-3.1-1.58-6.32-1.57-9.63c0.02-6.54-0.02-13.08-0.04-19.62c0-0.91-0.01-1.82-0.02-2.73
			c-0.01-1.25-0.52-2.08-1.89-2.12c-1.09-0.03-2.18,0.01-3.27-0.08c-2.1-0.17-2.84-0.94-3.05-3.07c-0.05-0.54-0.03-1.09-0.04-1.63
			c-0.09-2.99,0.19-4.71,4.17-4.84c4.91-0.16,8.02-2.98,9.94-7.29c0.67-1.49,1.26-3.02,1.9-4.52c0.73-1.7,2.02-2.49,3.87-2.37
			c0.54,0.03,1.09-0.01,1.64,0c2.88,0.08,3.62,0.69,3.75,3.45c0.14,2.9,0.1,5.81,0.17,8.72c0.03,1.31,0.78,1.95,2.08,1.95
			c2.73,0,5.45-0.05,8.18,0.02c2.89,0.07,3.36,0.59,3.52,3.6C100.55,507.29,100.54,507.65,100.53,508.02
			C100.53,508.02,100.53,508.02,100.53,508.02z"/>
		<path class="st7" d="M1847.68,776.59c2.3,0.72,3.9-0.48,5.62-0.9c9.82-2.41,20.21,2.52,24.34,11.8
			c5.4,12.15-1.99,25.63-14.19,28.67c-3.98,0.99-7.91,0.72-11.77-0.44c-1.77-0.53-3.43-1.08-5.23-0.07
			c-0.58,0.32-1.42,0.23-2.14,0.22c-8.8-0.08-7.71,1.03-7.74-7.32c-0.05-13.6-0.03-27.2,0-40.8c0.01-4.74,0.05-4.76,4.84-4.77
			c6.61-0.02,6.07-0.43,6.1,6.24C1847.52,771.72,1847.37,774.24,1847.68,776.59z M1868.53,795.64c0.41-5.67-5.63-10.25-10.56-10.03
			c-5.54,0.24-10.03,4.56-10.13,10c-0.09,5.53,4.72,10.66,10.14,10.64C1864.28,806.23,1868.94,801.18,1868.53,795.64z"/>
		<path class="st8" d="M1626.23,803.2c0.24,2.35-0.98,3.78-2.16,5.1c-5.77,6.45-12.93,9.34-21.5,7.34
			c-8.52-1.99-14.01-7.41-16.04-15.98c-2.56-10.8,4.38-21.92,15.53-24.39c11.78-2.61,20.87,3.04,25.16,12.35
			c1.32,2.87,1.68,5.92,1.35,9.04c-0.13,1.24-0.8,1.92-2.14,1.92c-6.17-0.01-12.35,0.01-18.52,0.02c-2,0-4-0.05-5.99,0.02
			c-1.21,0.05-2.55-0.44-3.61,0.5c-0.65,0.58,0.44,2.56,2.12,4.07c2.53,2.26,5.52,2.57,8.68,2.06c0.88-0.14,1.86-0.34,2.56-0.83
			C1616.39,801.16,1621.33,802.7,1626.23,803.2z M1616.07,789.95c-1.72-3.09-4.33-4.45-7.5-4.8c-3.21-0.35-6.12,0.47-8.45,2.82
			c-0.48,0.48-1.06,1.23-1,1.79c0.08,0.76,1.01,0.83,1.75,0.83c4.53,0,9.05,0.01,13.58-0.03
			C1614.91,790.56,1615.38,790.22,1616.07,789.95z"/>
		<path class="st7" d="M1760.39,777.13c2.12,0.49,3.49-0.56,4.98-1.14c13.23-5.15,22.92,4.83,23.27,14.95
			c0.24,6.88,0.06,13.78,0,20.68c-0.02,2.13-0.46,2.59-2.58,2.6c-8.07,0.04-7.26,0.92-7.3-6.62c-0.02-4.17,0.04-8.35-0.03-12.52
			c-0.02-1.43-0.11-2.93-0.53-4.29c-1.69-5.46-6.79-7.96-12.11-5.95c-2.29,0.87-3.98,2.45-4.8,4.87c-0.6,1.75-0.73,3.53-0.73,5.36
			c0.02,5.44,0.04,10.88-0.03,16.33c-0.03,2.39-0.46,2.72-2.92,2.85c-0.54,0.03-1.09,0.02-1.63,0.02c-7.1-0.03-6.51,0.55-6.52-6.37
			c-0.01-13.06-0.01-26.12,0-39.18c0-1.45,0.06-2.9,0.17-4.34c0.06-0.82,0.66-1.24,1.43-1.37c0.53-0.09,1.08-0.14,1.62-0.13
			c8.71,0.09,7.63-1.09,7.71,7.34C1760.41,772.53,1760.39,774.86,1760.39,777.13z"/>
		<path class="st8" d="M1724.3,816.22c-11.14,0.12-20.49-7.7-21.92-17.54c-1.65-11.37,5.17-20.84,15.68-23.35
			c13.92-3.32,24.57,5.82,26.47,16.25c1.34,7.38-0.86,13.63-6.2,18.74C1734.22,814.25,1729.13,815.96,1724.3,816.22z
			 M1734.13,795.44c0.03-5.44-4.86-10.33-10.46-10.44c-5.67-0.11-10.6,4.48-10.79,10.06c-0.2,5.78,4.74,10.71,10.68,10.65
			C1729.25,805.66,1734.1,800.95,1734.13,795.44z"/>
		<path class="st6" d="M1474.65,808.53c-0.63,0.76-1.36,1.82-2.27,2.68c-1.06,0.99-2.36,1.65-3.82,1.96
			c-2.16,0.47-3.17-0.17-3.25-2.3c-0.06-1.45,0-2.9,0.02-4.35c0.12-10.16,0.22-20.32,0.38-30.48c0.04-2.77,0.13-5.41-2.63-7.21
			c-0.96-0.63-0.61-2.01,0.45-2.73c2.8-1.89,5.98-2.6,9.27-2.75c2.27-0.1,3.7,1.3,3.8,3.71c0.13,3.08,0.01,6.17,0.03,9.25
			c0.01,1.76,0.08,3.51,0.12,5.18c1.39,0.4,1.9-0.55,2.6-1.03c4.76-3.26,10.41-1.7,13.78,2.01c1.36,1.5,2.45,3.17,3.08,5.08
			c1.88,5.68,1.93,11.41,0.01,17.09c-0.83,2.44-2.25,4.54-4.25,6.21c-4.35,3.64-9.49,3.69-13.91,0.15
			C1477.07,810.23,1476.52,808.94,1474.65,808.53z M1486.52,796.15c0-1.09,0.04-2.18-0.01-3.27c-0.1-2.21-0.67-4.31-1.8-6.22
			c-1.6-2.71-4.47-2.84-6.09-0.21c-0.75,1.21-1.38,2.6-1.64,3.99c-0.72,3.77-0.72,7.59-0.15,11.39c0.25,1.62,0.82,3.16,1.87,4.47
			c1.37,1.71,3.81,1.83,5.2,0.14c0.68-0.82,1.17-1.83,1.59-2.81C1486.53,801.25,1486.65,798.71,1486.52,796.15z"/>
		<path class="st7" d="M1793.09,788.8c0-3.27-0.05-6.54,0.02-9.81c0.05-2.32,0.51-2.74,2.98-2.81c2-0.05,4-0.01,5.99,0.06
			c1.3,0.05,1.95,0.87,1.97,2.12c0.05,3.81-0.02,7.63,0.08,11.44c0.08,2.9,0.16,5.82,0.58,8.68c0.58,3.94,3.6,6.58,7.35,6.82
			c3.81,0.25,7.08-1.95,8.38-5.63c0.73-2.09,0.87-4.25,0.86-6.45c-0.01-4.72-0.01-9.45,0.05-14.17c0.03-2.16,0.5-2.7,2.49-2.72
			c9.85-0.1,8.3-0.79,8.46,7.84c0.08,4.36-0.07,8.72-0.07,13.08c-0.01,4.74-1.65,8.88-4.59,12.53c-4.88,6.04-12.93,8.69-20.01,6.62
			c-7.98-2.34-13.62-8.74-14.34-16.72c-0.33-3.6-0.06-7.26-0.06-10.89C1793.19,788.8,1793.14,788.8,1793.09,788.8z"/>
		<path class="st8" d="M1672.11,813.88c-3.24-3.21-6.05-4.67-9.32-5.39c-2.26-0.49-2.5-0.95-2.54-3.46
			c-0.06-4.18-0.14-8.36,0.01-12.54c0.13-3.57-1.37-5.88-4.6-7.22c-3.41-1.41-6.42-0.61-9.1,1.69c-1.12,0.97-1.81,2.27-1.89,3.8
			c-0.06,1.09-0.07,2.18-0.07,3.27c-0.01,4.54,0.02,9.09-0.01,13.63c-0.03,4.14-0.05,4.16-4.23,4.2c-2,0.02-3.99-0.03-5.99-0.12
			c-0.79-0.04-1.33-0.56-1.41-1.37c-0.09-0.9-0.12-1.81-0.13-2.72c-0.04-4.72-0.12-9.45-0.09-14.17
			c0.07-10.33,6.49-17.46,16.78-18.72c6.93-0.85,12.96,0.95,17.89,6c2.76,2.83,4.48,6.22,4.57,10.21
			c0.14,6.18,0.09,12.36,0.11,18.53C1672.12,810.58,1672.11,811.66,1672.11,813.88z"/>
		<path class="st8" d="M1691.56,800.94c0,4.18,0.01,8.36-0.01,12.54c0,1.04-0.53,1.68-1.6,1.77c-0.54,0.05-1.09,0.08-1.63,0.07
			c-8.88-0.13-7.48,1.23-7.58-7.35c-0.07-6.36,0.01-12.72-0.03-19.08c-0.02-2.7-0.22-3.03-2.66-2.96c-5.33,0.14-4.69-0.64-4.73-4.83
			c0-0.36-0.01-0.73,0-1.09c0.07-3.54,0.07-3.54,3.62-3.78c0.72-0.05,1.46-0.02,2.17-0.15c0.77-0.13,1.29-0.59,1.34-1.45
			c0.03-0.54,0.04-1.09,0.11-1.63c0.92-7.16,5.31-12.01,12.31-13.42c2.12-0.43,4.32-0.52,6.49-0.67c1.27-0.09,2.07,0.56,2.1,1.9
			c0.04,1.63,0.03,3.27,0.03,4.91c0.02,3.56,0.07,3.85-3.43,3.84c-1.07,0-2.16,0.27-3.2,0.55c-2.01,0.53-2.94,1.97-3.13,3.97
			c-0.1,1.04,0.27,1.8,1.39,1.85c2,0.08,4,0.05,5.99,0.12c1.85,0.07,2.22,0.46,2.35,2.21c0.03,0.36,0.03,0.73,0.02,1.09
			c-0.12,7.38,1.02,6.47-6.17,6.54c-0.55,0.01-1.09,0.02-1.64,0.02c-1.3,0.01-2.04,0.63-2.06,1.96c-0.03,2.73-0.03,5.45-0.03,8.18
			c0,1.64,0,3.27,0,4.91C1691.59,800.94,1691.58,800.94,1691.56,800.94z"/>
		<path class="st6" d="M1508.58,779.32c2.72,0.12,5.43,0.21,8.15,0.39c0.88,0.06,1.52,1.57,0.86,2.09
			c-3.23,2.53-2.02,5.31-0.66,8.17c0.86,1.8,1.67,3.62,2.49,5.44c0.19,0.43,0.47,0.59,0.84,0.38c0.3-0.17,0.7-0.33,0.81-0.6
			c0.79-1.83,1.48-3.7,2.27-5.54c1.12-2.59,1.89-5-0.75-7.34c-1.11-0.98-0.23-2.6,1.31-2.61c3.09-0.03,6.17,0.04,9.26,0.17
			c0.45,0.02,1.09,0.44,1.27,0.85c0.29,0.67,0.13,1.58-0.52,1.95c-3.15,1.8-3.96,4.99-5.11,8.05c-3.46,9.17-6.97,18.32-10.57,27.44
			c-0.86,2.18-1.97,4.31-3.28,6.25c-2.47,3.66-6.26,4.95-10.49,3.88c-4.21-1.07-6.44-6.29-4.29-10.07c1.14-2.02,4-2.71,6.22-1.51
			c2.13,1.15,2.71,4.01,1.14,6.11c-0.53,0.7-1.38,1.15-2.02,1.79c-0.18,0.19-0.27,0.72-0.14,0.91c0.17,0.24,0.6,0.4,0.92,0.41
			c1.22,0.05,2.03-0.74,2.72-1.58c2.46-3,3.87-6.53,5.09-10.16c0.38-1.14-0.02-2.17-0.42-3.16c-3.35-8.24-6.74-16.46-10.09-24.71
			c-0.72-1.78-2.16-2.86-3.54-4.05c-0.57-0.49-0.77-1.29-0.35-1.96c0.25-0.4,0.81-0.83,1.25-0.84c2.54-0.08,5.09-0.04,7.63-0.04
			C1508.58,779.39,1508.58,779.35,1508.58,779.32z"/>
		<path class="st7" d="M1687.76,833.86c-10.87,0.19-19.66-3.79-27.65-9.88c-0.85-0.65-1.63-1.47-2.23-2.35
			c-1.73-2.53-1.18-5.4,1.32-7.15c1.45-1.02,3.08-1.31,4.61-0.36c1.53,0.95,2.93,2.12,4.35,3.26c6.61,5.31,13.98,8.28,22.62,7.8
			c3.51-0.2,6.83-0.84,9.99-2.35c1.15-0.55,2.27-1.14,3.43-1.67c1.02-0.47,2.1-0.59,3.19-0.36c1.34,0.29,2.33,1.04,2.7,2.39
			c0.3,1.11,0.1,2.21-0.76,3.01c-0.79,0.74-1.65,1.43-2.57,1.98C1700.74,831.79,1694.36,834.2,1687.76,833.86z"/>
		<path class="st6" d="M1557.38,777.89c2.99,0.05,5.47,2.7,5.29,5.64c-0.16,2.73-2.55,5.06-5.29,5.17c-2.96,0.12-5.5-2.4-5.48-5.43
			C1551.91,780.12,1554.25,777.83,1557.38,777.89z"/>
		<path class="st6" d="M1557.12,802.84c3.04,0.08,5.48,2.67,5.28,5.6c-0.19,2.74-2.58,5.08-5.29,5.17c-2.93,0.1-5.49-2.44-5.48-5.44
			C1551.63,805.06,1554,802.77,1557.12,802.84z"/>
		<path class="st1" d="M891.76,554.22c1.15,2.04,2.82,3.71,3.73,5.93c0.71,1.74,1.16,3.49,0.81,5.27c-0.94,4.87-2.54,9.4-7.09,12.23
			c-2.14,1.33-4.23,2.76-6.23,4.29c-3.15,2.4-6.44,4.65-9.05,7.7c-2.37,2.77-5.52,4.64-8.37,6.84c-1.69,1.31-3.73,2.17-5.83,2.81
			c-5.73,1.74-11.27,0.09-15-4.56c-0.99-1.24-1.42-2.99-3.2-3.51c0.48-1.04,0.34-2.1,0.19-3.19c-1.13-8.71,2-16.13,7.85-22.17
			c6.9-7.11,15.42-11.8,25.09-14.3c4.94-1.28,9.64-0.98,14.1,1.63C889.71,553.75,890.58,554.42,891.76,554.22z"/>
		<path class="st1" d="M1041.84,552.06c-0.09,1.44-0.17,2.88-0.26,4.32c-0.38,5.96-5.19,10.75-11.14,11.28
			c-5.61,0.5-10.79-0.72-15.53-3.66c-5.54-3.44-11.46-6.09-17.41-8.71c-5.44-2.4-8.27-6.77-8.48-12.75c-0.06-1.8-0.01-3.61,0-5.42
			c0.46-0.52,0.96-1.02,1.39-1.58c3.5-4.61,8.1-6.95,13.92-7.16c2.95-0.11,5.76,0.54,8.6,1c7.67,1.24,14.31,4.8,20.21,9.74
			C1037.27,542.58,1039.62,547.29,1041.84,552.06z"/>
		<path class="st4" d="M871.45,356.53c-8.38,0.13-16.64-1.31-24.23-5.81c-7.51-4.46-9.38-11.48-8.34-17.99
			c0.13-0.78,0.51-1.35,1.31-1.51c0.94-0.18,2.5,0.74,2.55,1.55c0.08,1.26,0.01,2.53,0.05,3.79c0.16,4.3,1.99,7.64,5.65,9.97
			c2.6,1.66,5.28,3.19,8.29,3.96c5.82,1.49,11.65,2.15,17.74,1.64c19-1.6,35.65-9.02,51.07-19.78c9.68-6.76,18.61-14.44,27.28-22.41
			c3.2-2.94,6.17-6.13,8.79-9.63c0.65-0.87,1.36-1.7,2.12-2.48c0.83-0.86,1.84-0.82,2.91,0c0.93,0.71,0.75,1.53,0.21,2.36
			c-0.5,0.76-0.99,1.53-1.58,2.21c-2.63,3-5.12,6.15-7.98,8.9c-11.94,11.45-24.47,22.21-38.81,30.55
			C902.62,351.08,887.95,355.77,871.45,356.53z"/>
	</g>
</g>
</svg>
